GIL06_free2_ik
nRows=3
nColumns=375

# SIMM Motion File Header:
name GIL06_free2_ik
datacolumns 375
datarows 3
otherdata 1
range 0.12500000 0.14167000
endheader
time	pelvis_tx	pelvis_ty	pelvis_tz	pelvis_tilt	pelvis_list	pelvis_rotation	hip_flexion_r	hip_adduction_r	hip_rotation_r	knee_angle_r	ankle_angle_r	hip_flexion_l	hip_adduction_l	hip_rotation_l	knee_angle_l	ankle_angle_l	lumbar_extension	lumbar_bending	lumbar_rotation	subtalar_angle_r	mtp_angle_r	subtalar_angle_l	mtp_angle_l	asis_r_px	asis_r_py	asis_r_pz	asis_l_px	asis_l_py	asis_l_pz	midasis_px	midasis_py	midasis_pz	psis_r_px	psis_r_py	psis_r_pz	psis_l_px	psis_l_py	psis_l_pz	hip_r_px	hip_r_py	hip_r_pz	hip_l_px	hip_l_py	hip_l_pz	midhip_px	midhip_py	midhip_pz	epicondLat_r_px	epicondLat_r_py	epicondLat_r_pz	epicondMed_r_px	epicondMed_r_py	epicondMed_r_pz	thighwand_r_px	thighwand_r_py	thighwand_r_pz	upperleg1_r_px	upperleg1_r_py	upperleg1_r_pz	upperleg2_r_px	upperleg2_r_py	upperleg2_r_pz	malleolusLat_r_px	malleolusLat_r_py	malleolusLat_r_pz	malleolusMedv_r_px	malleolusMedv_r_py	malleolusMedv_r_pz	shankwand_r_px	shankwand_r_py	shankwand_r_pz	lowerleg1_r_px	lowerleg1_r_py	lowerleg1_r_pz	knee_r_px	knee_r_py	knee_r_pz	ankle_r_px	ankle_r_py	ankle_r_pz	toe_r_px	toe_r_py	toe_r_pz	epicondLat_l_px	epicondLat_l_py	epicondLat_l_pz	epicondMed_l_px	epicondMed_l_py	epicondMed_l_pz	thighwand_l_px	thighwand_l_py	thighwand_l_pz	upperleg1_l_px	upperleg1_l_py	upperleg1_l_pz	upperleg2_l_px	upperleg2_l_py	upperleg2_l_pz	malleolusLat_l_px	malleolusLat_l_py	malleolusLat_l_pz	malleolusMedv_l_px	malleolusMedv_l_py	malleolusMedv_l_pz	shankwand_l_px	shankwand_l_py	shankwand_l_pz	lowerleg1_l_px	lowerleg1_l_py	lowerleg1_l_pz	knee_l_px	knee_l_py	knee_l_pz	ankle_l_px	ankle_l_py	ankle_l_pz	toe_l_px	toe_l_py	toe_l_pz	subclavicle_r_px	subclavicle_r_py	subclavicle_r_pz	subclavicle_l_px	subclavicle_l_py	subclavicle_l_pz	neck_px	neck_py	neck_pz	sternalnotch_px	sternalnotch_py	sternalnotch_pz	xyphoidprocess_px	xyphoidprocess_py	xyphoidprocess_pz	midhip_tx	midhip_ty	midhip_tz	hip_r_tx	hip_r_ty	hip_r_tz	hip_l_tx	hip_l_ty	hip_l_tz	knee_r_tx	knee_r_ty	knee_r_tz	knee_l_tx	knee_l_ty	knee_l_tz	ankle_r_tx	ankle_r_ty	ankle_r_tz	ankle_l_tx	ankle_l_ty	ankle_l_tz	midasis_tx	midasis_ty	midasis_tz	asis_r_tx	asis_r_ty	asis_r_tz	asis_l_tx	asis_l_ty	asis_l_tz	psis_r_tx	psis_r_ty	psis_r_tz	psis_l_tx	psis_l_ty	psis_l_tz	epicondLat_r_tx	epicondLat_r_ty	epicondLat_r_tz	epicondLat_l_tx	epicondLat_l_ty	epicondLat_l_tz	epicondMed_r_tx	epicondMed_r_ty	epicondMed_r_tz	epicondMed_l_tx	epicondMed_l_ty	epicondMed_l_tz	malleolusLat_r_tx	malleolusLat_r_ty	malleolusLat_r_tz	malleolusLat_l_tx	malleolusLat_l_ty	malleolusLat_l_tz	malleolusMedv_r_tx	malleolusMedv_r_ty	malleolusMedv_r_tz	malleolusMedv_l_tx	malleolusMedv_l_ty	malleolusMedv_l_tz	neck_tx	neck_ty	neck_tz	subclavicle_r_tx	subclavicle_r_ty	subclavicle_r_tz	subclavicle_l_tx	subclavicle_l_ty	subclavicle_l_tz	sternalnotch_tx	sternalnotch_ty	sternalnotch_tz	xyphoidprocess_tx	xyphoidprocess_ty	xyphoidprocess_tz	thighwand_r_tx	thighwand_r_ty	thighwand_r_tz	thighwand_l_tx	thighwand_l_ty	thighwand_l_tz	upperleg1_r_tx	upperleg1_r_ty	upperleg1_r_tz	upperleg1_l_tx	upperleg1_l_ty	upperleg1_l_tz	upperleg2_r_tx	upperleg2_r_ty	upperleg2_r_tz	upperleg2_l_tx	upperleg2_l_ty	upperleg2_l_tz	shankwand_r_tx	shankwand_r_ty	shankwand_r_tz	shankwand_l_tx	shankwand_l_ty	shankwand_l_tz	lowerleg1_r_tx	lowerleg1_r_ty	lowerleg1_r_tz	lowerleg1_l_tx	lowerleg1_l_ty	lowerleg1_l_tz	toe_r_tx	toe_r_ty	toe_r_tz	toe_l_tx	toe_l_ty	toe_l_tz	ground_force_vx	ground_force_vy	ground_force_vz	ground_force_px	ground_force_py	ground_force_pz	ground_force_vx	ground_force_vy	ground_force_vz	ground_force_px	ground_force_py	ground_force_pz	ground_torque_x	ground_torque_y	ground_torque_z	ground_torque_x	ground_torque_y	ground_torque_z	ground_marker_px	ground_marker_py	ground_marker_pz	ground_marker_px	ground_marker_py	ground_marker_pz	ground_marker_px	ground_marker_py	ground_marker_pz	ground_marker_px	ground_marker_py	ground_marker_pz	ground_marker_px	ground_marker_py	ground_marker_pz	ground_marker_px	ground_marker_py	ground_marker_pz	ground_marker_px	ground_marker_py	ground_marker_pz	ground_marker_px	ground_marker_py	ground_marker_pz	ground_marker_px	ground_marker_py	ground_marker_pz	ground_marker_px	ground_marker_py	ground_marker_pz	ground_marker_px	ground_marker_py	ground_marker_pz	ground_marker_px	ground_marker_py	ground_marker_pz	ground_marker_px	ground_marker_py	ground_marker_pz	ground_marker_px	ground_marker_py	ground_marker_pz	ground_marker_px	ground_marker_py	ground_marker_pz	ground_marker_px	ground_marker_py	ground_marker_pz	ground_marker_px	ground_marker_py	ground_marker_pz	ground_marker_px	ground_marker_py	ground_marker_pz	ground_marker_px	ground_marker_py	ground_marker_pz	ground_marker_px	ground_marker_py	ground_marker_pz	ground_marker_px	ground_marker_py	ground_marker_pz	ground_marker_px	ground_marker_py	ground_marker_pz	ground_marker_px	ground_marker_py	ground_marker_pz	ground_marker_px	ground_marker_py	ground_marker_pz	ground_marker_px	ground_marker_py	ground_marker_pz	ground_marker_px	ground_marker_py	ground_marker_pz	ground_marker_px	ground_marker_py	ground_marker_pz	ground_marker_px	ground_marker_py	ground_marker_pz	ground_marker_px	ground_marker_py	ground_marker_pz	ground_marker_px	ground_marker_py	ground_marker_pz	ground_marker_px	ground_marker_py	ground_marker_pz	ground_marker_px	ground_marker_py	ground_marker_pz	ground_marker_px	ground_marker_py	ground_marker_pz	ground_marker_px	ground_marker_py	ground_marker_pz	ground_marker_px	ground_marker_py	ground_marker_pz	ground_marker_px	ground_marker_py	ground_marker_pz	ground_marker_px	ground_marker_py	ground_marker_pz
      0.12500000	      0.12092577	      0.83111523	     -0.27043437	     -3.29416883	      4.67827275	     -7.16376199	     -2.20758190	     -7.73212614	      1.09737041	    -44.68582162	    -21.39588300	     17.47142024	      5.91368027	      0.41485767	     -3.76624635	    -11.56001008	      7.69544937	     -6.50970722	     16.08896216	      0.00000000	      0.00000000	      0.00000000	      0.00000000	      0.16180195	      0.80728842	     -0.14853138	      0.19217715	      0.82462878	     -0.39195205	      0.13423993	      0.83021189	     -0.26876279	     -0.05970366	      0.91607676	     -0.25850549	     -0.05718911	      0.91857495	     -0.31363563	      0.03969306	      0.76658885	     -0.20473224	      0.06041228	      0.77840024	     -0.36337751	      0.05005267	      0.77249454	     -0.28405487	     -0.00819108	      0.38882054	     -0.12731732	     -0.01260865	      0.39174448	     -0.27233915	      0.16548872	      0.52545968	     -0.12044043	      0.13151844	      0.55073755	     -0.14475444	      0.09729698	      0.48113503	     -0.15140251	     -0.30207447	      0.17059634	     -0.15545323	     -0.27900679	      0.15803206	     -0.22755801	     -0.12820721	      0.19226616	     -0.15893738	     -0.15104241	      0.23025606	     -0.17667561	      0.00054446	      0.39710057	     -0.18679255	     -0.28495100	      0.16476206	     -0.20077445	     -0.27537622	      0.05375262	     -0.18146475	      0.15168438	      0.40954877	     -0.40729722	      0.13391284	      0.40041707	     -0.26003181	      0.27774176	      0.62622185	     -0.34264255	      0.22938423	      0.63025220	     -0.35549929	      0.22832340	      0.55654855	     -0.35048884	      0.18751322	      0.04143192	     -0.36624957	      0.19212405	      0.06316138	     -0.28944067	      0.16312150	      0.14681411	     -0.43822806	      0.15951243	      0.16051812	     -0.39143571	      0.14039210	      0.42119858	     -0.34134926	      0.20095606	      0.05835591	     -0.32233493	      0.29929668	      0.03244970	     -0.32371390	      0.06977226	      1.27487185	     -0.24962357	      0.06638627	      1.27486870	     -0.33148408	     -0.07347432	      1.31087611	     -0.28252259	      0.05245274	      1.26574490	     -0.30209162	      0.11976856	      1.20589877	     -0.30367537	      0.04817600	      0.76599100	     -0.28638300	      0.01799500	      0.76561800	     -0.21014300	      0.03890600	      0.77288500	     -0.36418900	     -0.02162300	      0.38441500	     -0.17845000	      0.12685400	      0.41917700	     -0.33384200	     -0.29201100	      0.15504300	     -0.21361900	      0.19357800	      0.05915300	     -0.31329600	      0.15343200	      0.84337300	     -0.26670300	      0.13710000	      0.83769800	     -0.14639000	      0.16976500	      0.84904900	     -0.38701600	     -0.09392300	      0.90907700	     -0.25925300	     -0.09137700	      0.91090500	     -0.31283100	     -0.02869000	      0.39103900	     -0.10760900	      0.13866000	      0.41606800	     -0.40429200	      0.01137100	      0.38141500	     -0.24871100	      0.09707900	      0.41398900	     -0.25781000	     -0.30374700	      0.16340300	     -0.17791700	      0.18117600	      0.05472900	     -0.35053700	     -0.27384100	      0.15678600	     -0.24738800	      0.18090300	      0.07549000	     -0.27334700	     -0.06695100	      1.33101300	     -0.28483500	      0.06516400	      1.27233100	     -0.24808100	      0.06543300	      1.27520800	     -0.32877500	      0.04872800	      1.26747400	     -0.30079000	      0.10585000	      1.19778300	     -0.30197600	      0.15179500	      0.54530300	     -0.08892800	      0.26034500	      0.63207500	     -0.32505000	      0.11876500	      0.56506400	     -0.11860000	      0.21520100	      0.63855800	     -0.34177000	      0.09468100	      0.49193800	     -0.12363600	      0.20893900	      0.56346500	     -0.33756300	     -0.13208900	      0.18401600	     -0.16026000	      0.16423100	      0.15461800	     -0.42258500	     -0.15350500	      0.22116800	     -0.17442500	      0.15759200	      0.16997000	     -0.37820700	     -0.26513300	      0.05531200	     -0.22290900	      0.29852300	      0.04955500	     -0.31777700	      0.00000000	      0.00000000	      0.00000000	      0.59647498	      0.00000000	     -0.18939691	   -112.99234338	    743.67974929	     14.25483905	      0.20058714	      0.00000000	     -0.31537915	      0.00000000	      0.00000000	      0.00000000	      0.00000000	      2.06360962	      0.00000000	      0.04817608	      0.76599079	     -0.28638273	      0.01799484	      0.76561779	     -0.21014252	      0.03890647	      0.77288491	     -0.36418900	     -0.02162322	      0.38441527	     -0.17844962	      0.12685406	      0.41917709	     -0.33384231	     -0.29201072	      0.15504257	     -0.21361887	      0.19357793	      0.05915257	     -0.31329638	      0.15343218	      0.84337342	     -0.26670301	      0.13709979	      0.83769768	     -0.14638969	      0.16976456	      0.84904915	     -0.38701630	     -0.09392306	      0.90907651	     -0.25925267	     -0.09137671	      0.91090512	     -0.31283090	     -0.02869004	      0.39103940	     -0.10760873	      0.13866030	      0.41606835	     -0.40429229	      0.01137126	      0.38141549	     -0.24871051	      0.09707879	      0.41398880	     -0.25781032	     -0.30374682	      0.16340318	     -0.17791714	      0.18117553	      0.05472877	     -0.35053694	     -0.27384105	      0.15678589	     -0.24738818	      0.18090333	      0.07549036	     -0.27334678	     -0.06695094	      1.33101261	     -0.28483528	      0.06516445	      1.27233076	     -0.24808058	      0.06543316	      1.27520800	     -0.32877544	      0.04872764	      1.26747406	     -0.30079049	      0.10584971	      1.19778299	     -0.30197632	      0.15179490	      0.54530299	     -0.08892788	      0.26034540	      0.63207525	     -0.32504979	      0.11876546	      0.56506443	     -0.11860043	      0.21520072	      0.63855827	     -0.34176978	      0.09468077	      0.49193841	     -0.12363575	      0.20893858	      0.56346548	     -0.33756343	     -0.13208868	      0.18401636	     -0.16025966	      0.16423091	      0.15461789	     -0.42258459	     -0.15350455	      0.22116825	     -0.17442550	      0.15759151	      0.16996962	     -0.37820676	     -0.26513311	      0.05531230	     -0.22290896	      0.29852292	      0.04955469	     -0.31777704
      0.13333000	      0.13040816	      0.83225352	     -0.27221638	     -3.12086141	      4.86035215	     -6.87002957	     -0.91077872	     -8.36246326	      0.58154098	    -47.52273130	    -21.63811391	     16.56131756	      6.36587339	      0.35129616	     -3.58498828	    -11.06893669	      7.42656085	     -6.67127966	     15.55184376	      0.00000000	      0.00000000	      0.00000000	      0.00000000	      0.17196648	      0.80814780	     -0.15059920	      0.20108163	      0.82643291	     -0.39410469	      0.14373343	      0.83139047	     -0.27061342	     -0.05045168	      0.91654798	     -0.25910497	     -0.04821752	      0.91924505	     -0.31423782	      0.04972289	      0.76722019	     -0.20633974	      0.06961913	      0.77965048	     -0.36504306	      0.05967101	      0.77343533	     -0.28569140	      0.01091122	      0.38925606	     -0.12490495	      0.00712573	      0.39045602	     -0.26996917	      0.18108967	      0.53026623	     -0.11876963	      0.14661719	      0.55441430	     -0.14352121	      0.11417699	      0.48390768	     -0.14954324	     -0.28827167	      0.17755639	     -0.15401765	     -0.26495706	      0.16398098	     -0.22585925	     -0.11390926	      0.19499936	     -0.15626257	     -0.13568063	      0.23341608	     -0.17441436	      0.01997223	      0.39648431	     -0.18436250	     -0.27094393	      0.17102256	     -0.19916545	     -0.26465849	      0.05988753	     -0.17923722	      0.15568919	      0.40950328	     -0.40856238	      0.13859445	      0.40095643	     -0.26118180	      0.28499398	      0.62461279	     -0.34511096	      0.23662602	      0.62926282	     -0.35771685	      0.23460242	      0.55559204	     -0.35252273	      0.18795459	      0.04116365	     -0.36664076	      0.19321162	      0.06306314	     -0.28992171	      0.16425491	      0.14658651	     -0.43879068	      0.16104475	      0.16046033	     -0.39201931	      0.14488844	      0.42146597	     -0.34258680	      0.20181254	      0.05807303	     -0.32284969	      0.30008939	      0.03196662	     -0.32485703	      0.07922465	      1.27561879	     -0.24983646	      0.07618709	      1.27576873	     -0.33171050	     -0.06384048	      1.31184338	     -0.28327865	      0.06211846	      1.26660695	     -0.30239432	      0.12937381	      1.20668845	     -0.30380112	      0.05777400	      0.76729800	     -0.28796700	      0.02795200	      0.76638700	     -0.21155700	      0.04817600	      0.77437000	     -0.36566000	     -0.00261900	      0.38285200	     -0.17579600	      0.13131000	      0.42001400	     -0.33524100	     -0.27776800	      0.16042500	     -0.21253200	      0.19428700	      0.05908300	     -0.31355400	      0.16289800	      0.84480900	     -0.26837000	      0.14717700	      0.83860400	     -0.14857300	      0.17862000	      0.85101500	     -0.38816600	     -0.08451500	      0.90951400	     -0.25935600	     -0.08211000	      0.91183000	     -0.31307100	     -0.01017400	      0.39004900	     -0.10506200	      0.14277100	      0.41665200	     -0.40573600	      0.03199900	      0.37971600	     -0.24573200	      0.11742300	      0.40725700	     -0.25558900	     -0.28932400	      0.16881400	     -0.17677800	      0.18149300	      0.05462100	     -0.35065700	     -0.25990300	      0.16193100	     -0.24619600	      0.18131500	      0.07546600	     -0.27354200	     -0.05762600	      1.33181100	     -0.28543200	      0.07466400	      1.27330600	     -0.24876900	      0.07549500	      1.27622100	     -0.32896500	      0.05852500	      1.26844700	     -0.30124000	      0.11589500	      1.19887700	     -0.30217700	      0.16702600	      0.54862000	     -0.08678000	      0.26825300	      0.63209500	     -0.32729100	      0.13415100	      0.56682100	     -0.11629000	      0.21706300	      0.63691500	     -0.34615200	      0.11178800	      0.49307700	     -0.12092800	      0.21684700	      0.56406600	     -0.34001400	     -0.11714200	      0.18511800	     -0.15882800	      0.16493900	      0.15452400	     -0.42319400	     -0.13806800	      0.22291200	     -0.17307100	      0.15805700	      0.16995700	     -0.37848000	     -0.25376500	      0.05942900	     -0.22119500	      0.29862400	      0.04937500	     -0.31772400	      0.00000000	      0.00000000	      0.00000000	      0.59820398	      0.00000000	     -0.18982866	   -108.24319458	    752.34583616	     17.66969218	      0.20100624	      0.00000000	     -0.31581802	      0.00000000	      0.00000000	      0.00000000	      0.00000000	      2.11411816	      0.00000000	      0.05777421	      0.76729769	     -0.28796721	      0.02795193	      0.76638716	     -0.21155690	      0.04817618	      0.77436990	     -0.36565974	     -0.00261946	      0.38285184	     -0.17579624	      0.13130984	      0.42001441	     -0.33524090	     -0.27776816	      0.16042461	     -0.21253200	      0.19428748	      0.05908303	     -0.31355357	      0.16289845	      0.84480935	     -0.26836962	      0.14717652	      0.83860373	     -0.14857313	      0.17862038	      0.85101497	     -0.38816607	     -0.08451510	      0.90951395	     -0.25935557	     -0.08210967	      0.91183007	     -0.31307071	     -0.01017448	      0.39004928	     -0.10506175	      0.14277105	      0.41665176	     -0.40573618	      0.03199862	      0.37971571	     -0.24573228	      0.11742271	      0.40725738	     -0.25558907	     -0.28932375	      0.16881418	     -0.17677821	      0.18149307	      0.05462116	     -0.35065672	     -0.25990278	      0.16193062	     -0.24619614	      0.18131541	      0.07546622	     -0.27354231	     -0.05762570	      1.33181095	     -0.28543186	      0.07466410	      1.27330625	     -0.24876875	      0.07549523	      1.27622080	     -0.32896534	      0.05852509	      1.26844728	     -0.30123952	      0.11589547	      1.19887686	     -0.30217677	      0.16702630	      0.54861999	     -0.08677986	      0.26825279	      0.63209516	     -0.32729107	      0.13415112	      0.56682050	     -0.11628977	      0.21706297	      0.63691509	     -0.34615228	      0.11178797	      0.49307713	     -0.12092779	      0.21684746	      0.56406611	     -0.34001365	     -0.11714163	      0.18511783	     -0.15882838	      0.16493884	      0.15452373	     -0.42319354	     -0.13806790	      0.22291242	     -0.17307095	      0.15805711	      0.16995664	     -0.37848020	     -0.25376517	      0.05942905	     -0.22119498	      0.29862413	      0.04937483	     -0.31772405
      0.14167000	      0.13961216	      0.83321978	     -0.27373753	     -2.99983790	      5.01467769	     -6.53579697	      0.54443889	     -8.91625581	     -0.00808038	    -50.46776047	    -20.91855139	     15.68797083	      6.76801585	      0.30877321	     -3.36694442	    -10.58450923	      7.19470574	     -6.89182541	     14.73620546	      0.00000000	      0.00000000	      0.00000000	      0.00000000	      0.18192128	      0.80885932	     -0.15243038	      0.20960910	      0.82794933	     -0.39604056	      0.15294850	      0.83238690	     -0.27221257	     -0.04138957	      0.91699998	     -0.25934999	     -0.03947472	      0.91986788	     -0.31448623	      0.05947102	      0.76777821	     -0.20760148	      0.07843565	      0.78073550	     -0.36637669	      0.06895334	      0.77425686	     -0.28698908	      0.03047343	      0.38975707	     -0.12243102	      0.02754071	      0.38935416	     -0.26751938	      0.19670728	      0.53541651	     -0.11678747	      0.16174130	      0.55835741	     -0.14199099	      0.13127093	      0.48693296	     -0.14746103	     -0.27368194	      0.18455976	     -0.15340409	     -0.25001236	      0.17007267	     -0.22495095	     -0.09894128	      0.19785747	     -0.15405094	     -0.11962103	      0.23668658	     -0.17259741	      0.03994484	      0.39597089	     -0.18183143	     -0.25608461	      0.17738905	     -0.19835050	     -0.25128942	      0.06636837	     -0.17739694	      0.15924917	      0.40937366	     -0.40962586	      0.14293876	      0.40136079	     -0.26212644	      0.29182159	      0.62285152	     -0.34741919	      0.24344474	      0.62812685	     -0.35974158	      0.24046139	      0.55450086	     -0.35437787	      0.18821037	      0.04086087	     -0.36690803	      0.19415575	      0.06291091	     -0.29028241	      0.16508677	      0.14631797	     -0.43919471	      0.16230175	      0.16034587	     -0.39244205	      0.14898476	      0.42162587	     -0.34361620	      0.20250327	      0.05775048	     -0.32324934	      0.30072238	      0.03149095	     -0.32596143	      0.08838519	      1.27629563	     -0.25005929	      0.08604077	      1.27649085	     -0.33195601	     -0.05434796	      1.31271061	     -0.28469208	      0.07171350	      1.26733123	     -0.30276467	      0.13890593	      1.20733198	     -0.30363339	      0.06710500	      0.76843500	     -0.28934000	      0.03763400	      0.76707500	     -0.21279700	      0.05709300	      0.77573700	     -0.36696100	      0.01710700	      0.38150900	     -0.17348200	      0.13544600	      0.42068200	     -0.33666400	     -0.26284700	      0.16587100	     -0.21165200	      0.19486500	      0.05901800	     -0.31381700	      0.17211800	      0.84605100	     -0.26993800	      0.15704900	      0.83934300	     -0.15055300	      0.18718700	      0.85275900	     -0.38932200	     -0.07531700	      0.90997100	     -0.25945400	     -0.07300700	      0.91274400	     -0.31324300	      0.00892400	      0.38914500	     -0.10286300	      0.14652400	      0.41710700	     -0.40721100	      0.05276100	      0.37692400	     -0.24108900	      0.12181200	      0.40927200	     -0.25911300	     -0.27407800	      0.17409800	     -0.17575700	      0.18172500	      0.05452300	     -0.35079600	     -0.24570900	      0.16655400	     -0.24526800	      0.18213200	      0.07577000	     -0.27381900	     -0.04822600	      1.33268300	     -0.28677300	      0.08420300	      1.27428100	     -0.24904500	      0.08531300	      1.27711100	     -0.32917000	      0.06809400	      1.26941100	     -0.30163000	      0.12571800	      1.19984800	     -0.30219500	      0.18202300	      0.55218000	     -0.08470600	      0.27589700	      0.63162000	     -0.32951300	      0.14924700	      0.56926100	     -0.11437000	      0.22704600	      0.63791500	     -0.34694900	      0.12853500	      0.49419300	     -0.11781900	      0.22481200	      0.56419100	     -0.34193000	     -0.10144800	      0.18634200	     -0.15828600	      0.16557600	      0.15443900	     -0.42383100	     -0.12245400	      0.22512600	     -0.17313300	      0.15890000	      0.16990400	     -0.37909800	     -0.24031300	      0.06392700	     -0.21908200	      0.29864700	      0.04922700	     -0.31777100	      0.00000000	      0.00000000	      0.00000000	      0.60000366	      0.00000000	     -0.19031323	   -104.04936261	    763.17424224	     22.01358925	      0.20154453	      0.00000000	     -0.31632751	      0.00000000	      0.00000000	      0.00000000	      0.00000000	      2.17061865	      0.00000000	      0.06710474	      0.76843500	     -0.28933972	      0.03763402	      0.76707530	     -0.21279663	      0.05709318	      0.77573740	     -0.36696124	      0.01710722	      0.38150868	     -0.17348184	      0.13544627	      0.42068246	     -0.33666438	     -0.26284686	      0.16587076	     -0.21165164	      0.19486529	      0.05901787	     -0.31381741	      0.17211820	      0.84605104	     -0.26993790	      0.15704909	      0.83934307	     -0.15055330	      0.18718731	      0.85275900	     -0.38932249	     -0.07531676	      0.90997148	     -0.25945386	     -0.07300741	      0.91274410	     -0.31324288	      0.00892449	      0.38914502	     -0.10286329	      0.14652362	      0.41710731	     -0.40721053	      0.05276054	      0.37692413	     -0.24108928	      0.12181168	      0.40927178	     -0.25911272	     -0.27407777	      0.17409769	     -0.17575689	      0.18172505	      0.05452305	     -0.35079554	     -0.24570896	      0.16655447	     -0.24526832	      0.18213166	      0.07576961	     -0.27381936	     -0.04822638	      1.33268309	     -0.28677335	      0.08420331	      1.27428091	     -0.24904548	      0.08531278	      1.27711117	     -0.32917032	      0.06809445	      1.26941061	     -0.30162978	      0.12571801	      1.19984829	     -0.30219486	      0.18202300	      0.55218047	     -0.08470640	      0.27589718	      0.63161993	     -0.32951257	      0.14924732	      0.56926084	     -0.11437009	      0.22704598	      0.63791466	     -0.34694886	      0.12853496	      0.49419329	     -0.11781932	      0.22481166	      0.56419086	     -0.34193012	     -0.10144792	      0.18634216	     -0.15828639	      0.16557573	      0.15443908	     -0.42383054	     -0.12245444	      0.22512579	     -0.17313279	      0.15889968	      0.16990386	     -0.37909752	     -0.24031299	      0.06392711	     -0.21908233	      0.29864711	      0.04922676	     -0.31777075
